<?xml version="1.0" encoding="UTF-8" standalone="no"?>
<!-- Created with Inkscape (http://www.inkscape.org/) -->

<svg
   xmlns:dc="http://purl.org/dc/elements/1.1/"
   xmlns:cc="http://creativecommons.org/ns#"
   xmlns:rdf="http://www.w3.org/1999/02/22-rdf-syntax-ns#"
   xmlns:svg="http://www.w3.org/2000/svg"
   xmlns="http://www.w3.org/2000/svg"
   xmlns:sodipodi="http://sodipodi.sourceforge.net/DTD/sodipodi-0.dtd"
   xmlns:inkscape="http://www.inkscape.org/namespaces/inkscape"
   width="210mm"
   height="297mm"
   viewBox="0 0 210 297"
   version="1.1"
   id="svg8"
   sodipodi:docname="neuron.svg"
   inkscape:export-filename="D:\softs\github\latex\These\fichiers_latex\Chap2\Figures\neuron.png"
   inkscape:export-xdpi="96"
   inkscape:export-ydpi="96"
   inkscape:version="0.92.3 (2405546, 2018-03-11)">
  <defs
     id="defs2">
    <clipPath
       clipPathUnits="userSpaceOnUse"
       id="clipPath4601">
      <rect
         style="fill:#00ffff;fill-opacity:1;stroke-width:0.26458332"
         id="rect4603"
         width="31.537804"
         height="39.689526"
         x="-49.37804"
         y="138.37553" />
    </clipPath>
    <clipPath
       clipPathUnits="userSpaceOnUse"
       id="clipPath4638">
      <rect
         style="fill:#00ffff;fill-opacity:1;stroke-width:0.26458332"
         id="rect4640"
         width="42.333332"
         height="47.247025"
         x="-19.654762"
         y="148.83334" />
    </clipPath>
  </defs>
  <sodipodi:namedview
     id="base"
     pagecolor="#ffffff"
     bordercolor="#666666"
     borderopacity="1.0"
     inkscape:pageopacity="0.0"
     inkscape:pageshadow="2"
     inkscape:zoom="0.7"
     inkscape:cx="399.90419"
     inkscape:cy="826.19164"
     inkscape:document-units="mm"
     inkscape:current-layer="layer1"
     showgrid="false"
     inkscape:window-width="1920"
     inkscape:window-height="1137"
     inkscape:window-x="1912"
     inkscape:window-y="-8"
     inkscape:window-maximized="1" />
  <metadata
     id="metadata5">
    <rdf:RDF>
      <cc:Work
         rdf:about="">
        <dc:format>image/svg+xml</dc:format>
        <dc:type
           rdf:resource="http://purl.org/dc/dcmitype/StillImage" />
      </cc:Work>
    </rdf:RDF>
  </metadata>
  <g
     inkscape:label="Calque 1"
     inkscape:groupmode="layer"
     id="layer1">
    <path
       style="fill:#000000;fill-rule:nonzero;stroke:#000000;stroke-width:0.12418807;stroke-miterlimit:4;stroke-dasharray:none;stroke-opacity:1"
       d="m 202.38984,138.3625 c -0.14686,-0.23423 -0.2942,-0.28957 -0.85331,-0.32055 -0.37169,-0.0206 -1.11983,0.0214 -1.66253,0.0934 -0.84901,0.11263 -1.08325,0.10417 -1.67839,-0.0607 -0.95458,-0.26437 -2.6792,-1.25924 -5.00805,-2.88894 -2.02958,-1.42028 -2.77919,-1.80604 -4.41377,-2.27138 -0.83986,-0.23909 -1.18016,-0.26947 -2.91988,-0.26064 -1.35696,0.007 -2.20139,0.0656 -2.71598,0.18889 -0.41071,0.0984 -0.76872,0.16058 -0.79557,0.1382 -0.066,-0.055 0.85737,-1.32433 1.5222,-2.09233 1.26308,-1.45911 4.36169,-3.70559 6.1315,-4.4453 2.46597,-1.03068 6.30855,-1.65685 8.3997,-1.36878 0.44121,0.0608 0.58618,0.15788 0.92861,0.62192 0.61271,0.83033 1.21135,0.85096 1.92805,0.0665 0.51463,-0.56335 0.68496,-1.28631 0.48874,-2.07449 -0.17028,-0.68391 -0.7112,-1.29295 -1.14834,-1.29295 -0.29005,0 -0.92794,0.27837 -1.15065,0.50212 -0.1219,0.12249 -0.4129,0.17737 -0.94076,0.17743 -3.25717,4.7e-4 -7.18391,0.70488 -9.21925,1.65397 -1.11429,0.5196 -2.74301,1.54829 -3.99488,2.52314 l -1.00425,0.78202 0.11132,-1.03577 c 0.28673,-2.66789 0.93858,-4.70847 1.86829,-5.84857 2.47887,-3.03977 5.71173,-5.73104 7.15573,-5.95692 0.54623,-0.0855 0.64753,-0.23677 0.52453,-0.78351 -0.17329,-0.77022 -1.42197,-1.4694 -3.02027,-1.69114 -0.50469,-0.07 -0.59127,-0.0482 -0.78427,0.19736 -0.1193,0.15183 -0.25614,0.62622 -0.30407,1.05419 -0.10828,0.96687 -0.35799,1.31631 -2.10726,2.94877 -3.13761,2.92805 -3.57188,3.52555 -4.10427,5.64677 -1.54795,6.16767 -3.20739,10.20797 -4.84311,11.79172 -2.49174,2.41258 -6.63135,3.22658 -13.36487,2.62803 -0.74695,-0.0664 -1.44053,-0.15792 -1.5413,-0.20338 -0.10077,-0.0454 -0.35672,-0.42558 -0.56878,-0.8447 -0.81013,-1.60114 -1.62111,-2.0692 -3.38175,-1.95178 -0.56483,0.0377 -1.48532,0.12508 -2.04553,0.19425 -0.88199,0.1089 -2.0065,0.12 -6.79041,0.067 -0.75333,-0.008 -1.15156,0.0763 -2.71617,0.57725 -1.00837,0.32287 -2.70244,0.76023 -3.76462,0.97192 -1.06215,0.21168 -2.07667,0.46437 -2.25448,0.56151 -0.51564,0.28173 -0.82372,0.94805 -0.88198,1.90756 -0.0467,0.76888 -0.0868,0.87769 -0.36258,0.98245 -0.26215,0.0996 -0.36658,0.0686 -0.67525,-0.19999 -0.20084,-0.17478 -0.67322,-0.45761 -1.04974,-0.62848 -0.61567,-0.27942 -0.7849,-0.30532 -1.68115,-0.25736 -0.88205,0.0472 -1.18848,0.13272 -2.66678,0.74426 -2.51648,1.041 -6.82058,3.37402 -9.4113,5.10132 -2.2414,1.4944 -3.90355,3.14932 -4.27542,4.25682 -0.19918,0.59321 -0.10768,1.42951 0.19594,1.79097 0.14816,0.17637 0.16204,0.27889 0.0526,0.3888 -0.22113,0.22217 -0.36848,0.18492 -0.74523,-0.18841 -0.50618,-0.50162 -1.19158,-0.6366 -2.10645,-0.41483 -0.76438,0.18529 -2.14163,0.86592 -2.96157,1.46359 -0.25812,0.18815 -1.1898,0.62746 -2.0704,0.97624 l -1.60109,0.63414 -1.43286,1.47215 c -1.36319,1.40057 -1.53273,1.52996 -3.48681,2.66119 -1.12967,0.65397 -2.18006,1.33176 -2.33419,1.5062 -0.20829,0.23572 -0.29341,0.53448 -0.3315,1.16345 -0.0421,0.69513 -0.0983,0.86727 -0.3146,0.96381 -0.22214,0.0991 -0.38627,0.0227 -1.04858,-0.48867 -1.37129,-1.05861 -1.11468,-1.07106 -6.755475,0.32765 -5.46248,1.35449 -5.59283,1.37087 -8.13166,1.02148 -2.203637,-0.30325 -3.024407,-0.12754 -3.851557,0.82459 -0.38454,0.44264 -0.40502,0.45054 -0.66983,0.25854 -0.15024,-0.10893 -0.3792,-0.47832 -0.50881,-0.82088 -0.45575,-1.20453 -0.64318,-1.40342 -1.92532,-2.04295 -3.88783,-1.93928 -4.19268,-2.2079 -6.80627,-5.99724 -2.48567,-3.60389 -2.44195,-3.56639 -4.03925,-3.46469 l -0.96082,0.0612 -0.29681,-0.70465 c -0.95731,-2.27271 -0.94726,-4.99282 0.0271,-7.32903 0.52126,-1.24983 1.04487,-1.87028 3.69849,-4.38254 l 2.45779,-2.32688 2.00149,-3.27168 c 1.50642,-2.46243 2.1078,-3.33817 2.4313,-3.54053 0.59741,-0.37367 1.57764,-0.76572 2.99684,-1.19858 1.43172,-0.43668 1.99476,-0.42172 3.440857,0.0914 1.39071,0.49346 2.21506,0.93896 8.77312,4.74129 3.29844,1.91242 6.117585,3.47981 6.264785,3.48309 0.14985,0.003 0.28881,-0.0812 0.31577,-0.19219 0.0265,-0.109 -0.0223,-0.19817 -0.10832,-0.19817 -0.1483,0 -4.082405,-2.74416 -4.016615,-2.80172 0.0171,-0.015 1.63044,0.0593 3.585085,0.16502 2.78746,0.15082 3.58948,0.16263 3.71883,0.0548 0.12935,-0.10786 0.12224,-0.16987 -0.033,-0.28754 -0.10884,-0.0825 -2.29208,-0.51521 -4.851645,-0.96156 -3.4797,-0.60679 -4.78195,-0.879 -5.16183,-1.07896 -0.70453,-0.37085 -2.35829,-1.47618 -3.87452,-2.58965 -0.7017,-0.5153 -1.57531,-1.08521 -1.94135,-1.26645 l -0.66552,-0.32954 0.95065,-0.20523 c 1.43852,-0.31057 3.53679,-0.66417 4.60448,-0.77595 1.44049,-0.15082 2.03136,-0.0122 3.35569,0.78749 1.38937,0.83891 3.014835,1.52569 4.192965,1.77157 1.02555,0.21403 3.69707,0.17849 3.97455,-0.0529 0.35053,-0.29229 -0.10287,-0.49887 -1.93823,-0.88312 -1.00397,-0.21018 -2.21737,-0.53509 -2.69644,-0.72203 -0.942835,-0.36789 -2.339155,-1.16024 -2.845485,-1.61467 l -0.31581,-0.28345 1.47018,-0.2901 c 2.997105,-0.59139 6.102005,-0.65496 9.482865,-0.19415 1.53545,0.20928 1.83341,0.20157 1.83341,-0.0474 0,-0.29199 -0.42773,-0.40608 -3.40701,-0.90877 -1.67414,-0.28247 -3.13066,-0.53965 -3.23672,-0.5715 -0.31384,-0.0943 0.73067,-0.89601 1.74804,-1.34179 0.49408,-0.21649 1.69079,-0.59207 2.65935,-0.83462 1.47322,-0.36893 1.76787,-0.4796 1.803,-0.6772 0.037,-0.20831 -0.0489,-0.24567 -0.72735,-0.31636 -2.25628,-0.23506 -3.82534,0.22872 -6.82249,2.01655 -0.94179,0.56178 -1.35072,0.72406 -2.512455,0.99704 -0.76316,0.17932 -1.43341,0.32752 -1.48943,0.32933 -0.23572,0.007 -0.0705,-0.58477 0.36597,-1.3121 0.77389,-1.2896 2.332395,-2.64878 5.088995,-4.43812 0.39495,-0.25637 0.30504,-0.58805 -0.15939,-0.58805 -0.17327,0 -0.90957,0.30225 -1.63622,0.67168 -0.72665,0.36942 -1.29821,0.63696 -1.27014,0.59452 0.0281,-0.0425 0.60967,-0.87103 1.29243,-1.84131 0.68277,-0.97028 1.2414,-1.84932 1.2414,-1.95342 0,-0.12461 -0.11202,-0.18929 -0.32782,-0.18929 -0.2455,0 -0.59749,0.26301 -1.4019,1.0475 -1.571775,1.53285 -1.989245,2.03899 -3.899585,4.72785 -0.99518,1.40076 -1.94876,2.6049 -2.24544,2.83546 -0.33958,0.26389 -0.88018,0.50421 -1.58304,0.70371 -0.98416,0.27935 -2.8985,0.65079 -3.35404,0.65079 -0.13791,0 0.25117,-1.01163 1.36104,-3.53881 0.85479,-1.94635 1.69851,-3.83717 1.87495,-4.20182 0.51568,-1.0658 1.49073,-2.31405 3.1524,-4.03569 1.51395,-1.56859 1.7255,-1.92597 1.14007,-1.92597 -0.63109,0 -3.79134,2.46767 -4.85834,3.79361 -1.17738,1.4631 -2.61095,4.00197 -4.18823,7.41736 -0.82359,1.78337 -1.17778,2.23814 -2.04747,2.62887 -1.949047,0.87564 -4.203227,0.85867 -6.359617,-0.0479 -2.97276,-1.24979 -5.09753,-3.23386 -7.19042,-6.71432 -1.95157,-3.24544 -2.71858,-5.34665 -2.72824,-7.47398 -0.0123,-2.71872 0.86442,-3.50233 4.36602,-3.9021 1.33622,-0.15255 1.80137,-0.0472 3.58001,0.81109 2.60539,1.25719 3.22567,1.39488 6.23976,1.38513 2.276587,-0.008 2.987777,-0.1112 2.987777,-0.43623 0,-0.2656 -0.2032,-0.31132 -1.878417,-0.42277 -2.77972,-0.18493 -4.26385,-0.56379 -5.72622,-1.46174 l -0.61053,-0.37489 5.43172,-1.13989 c 5.045937,-1.05892 5.434797,-1.15797 5.475107,-1.39467 0.0399,-0.2342 -0.009,-0.25465 -0.61114,-0.25299 -0.35999,8.3e-4 -1.78514,0.10278 -3.16698,0.22619 -3.343837,0.29864 -3.149717,0.31707 -2.506067,-0.23796 0.85698,-0.73899 2.446117,-1.77229 4.203667,-2.733343 1.61348,-0.882268 1.97592,-1.235565 1.34467,-1.310736 -0.33947,-0.04044 -1.9314,0.473204 -3.48363,1.123973 -1.542987,0.646892 -2.939707,1.453406 -4.087897,2.360486 l -0.97098,0.76709 -2.69918,0.35894 c -1.48455,0.19741 -2.72669,0.336 -2.76031,0.30797 -0.0919,-0.0766 1.67606,-1.71217 2.89329,-2.67649 2.07704,-1.645499 3.49026,-2.236374 9.627877,-4.025486 4.11572,-1.199726 4.7541,-1.447852 4.31166,-1.675856 -0.0646,-0.03327 -1.91138,0.242405 -4.1039,0.612687 -2.19252,0.370283 -4.001517,0.660317 -4.020007,0.644516 -0.0185,-0.01584 0.81564,-0.920516 1.853597,-2.010468 1.85943,-1.952583 2.21324,-2.491326 1.63612,-2.491326 -0.14025,0 -3.091957,1.975789 -6.559367,4.390651 -6.15253,4.284912 -8.74899,5.997672 -8.90053,5.871302 -0.1229,-0.10247 0.21401,-3.362962 0.41347,-4.001499 0.28092,-0.89929 0.75853,-1.396399 2.50051,-2.60263 2.16063,-1.496106 2.75393,-2.007032 3.61345,-3.111734 1.27318,-1.63635 1.54137,-2.244719 0.98952,-2.244719 -0.10657,0 -0.82657,0.524877 -1.60001,1.166399 -1.45255,1.204805 -2.87437,2.202259 -3.89334,2.731304 -0.4624,0.240087 -0.55824,0.26115 -0.45502,0.100019 0.35219,-0.5498 3.14995,-7.109449 3.08887,-7.242179 -0.0387,-0.08404 -0.18954,-0.152809 -0.33524,-0.152809 -0.2026,0 -0.65312,0.566076 -1.91517,2.406391 -0.90764,1.323519 -2.04154,3.06966 -2.51976,3.880317 l -0.8695,1.473926 -0.74179,4.867635 c -0.40798,2.677209 -0.81196,5.065469 -0.89774,5.307259 -0.0858,0.24179 -0.41589,0.67494 -0.73358,0.96256 -1.00998,0.91437 -1.62227,1.63351 -2.30581,2.70815 -0.58302,0.91661 -0.76329,1.10049 -1.45821,1.48744 -1.63673,0.91137 -2.99062,1.05522 -4.38338,0.46575 -1.24866,-0.52847 -3.115977,-1.73925 -3.912023,-2.53657 -1.396458,-1.39869 -2.093228,-3.24867 -1.748192,-4.6416 0.45166,-1.82337 1.622354,-3.241854 4.968065,-6.019598 2.57624,-2.138896 4.82235,-4.298237 4.82235,-4.636058 0,-0.482109 -0.73658,-0.0903 -3.92677,2.088773 -1.8236,1.245621 -3.333694,2.249705 -3.355767,2.231302 -0.02207,-0.01843 0.07617,-0.345043 0.218312,-0.725865 0.384632,-1.030474 0.914425,-3.226921 1.079195,-4.474243 0.18629,-1.410113 0.18934,-4.565324 0.005,-4.853007 -0.1332,-0.207534 -0.674259,-0.315099 -0.674259,-0.134048 0,0.234184 -0.959127,4.839632 -1.160334,5.571584 l -0.231947,0.843786 -1.270161,-2.938764 c -1.725504,-3.992293 -1.68124,-3.901321 -1.898366,-3.901321 -0.380497,0 -0.226427,1.326345 0.409425,3.524593 1.303035,4.504821 1.462328,5.880637 0.906721,7.831319 -0.359425,1.261967 -1.111548,2.869087 -1.247641,2.665976 -0.160795,-0.239945 -1.042676,-3.644669 -1.344068,-5.189004 -0.15194,-0.778539 -0.341676,-2.128957 -0.421638,-3.000918 -0.346611,-3.779757 -0.298173,-3.506883 -0.629472,-3.546165 -0.372753,-0.04419 -0.358679,-0.09587 -0.719111,2.640225 -0.15589,1.183383 -0.295815,2.189968 -0.310947,2.236854 -0.01513,0.04686 -0.646693,-1.252567 -1.403469,-2.887674 -1.154374,-2.494161 -1.42227,-2.978755 -1.663525,-3.009115 -0.422958,-0.0532 -0.383322,0.235226 0.382907,2.786446 1.195148,3.979353 3.403776,11.973492 3.403776,12.319982 0,0.1271 -1.700091,-0.93822 -2.574359,-1.61316 -1.806426,-1.394569 -2.172286,-2.097061 -3.467806,-6.658519 -0.391536,-1.378585 -0.778813,-2.444088 -1.081557,-2.975652 -0.588275,-1.03291 -2.07675,-2.86035 -2.329793,-2.86035 -0.251999,0 -0.244122,0.05195 0.1557,1.027656 0.618085,1.508289 2.097193,6.939362 1.928245,7.080239 -0.03128,0.0261 -0.837018,-0.872945 -1.79053,-1.997843 -1.791823,-2.113889 -2.13399,-2.36505 -2.220461,-1.629929 -0.08412,0.715133 2.592233,4.654244 4.977042,7.325323 l 1.086841,1.217305 -0.363395,0.085 c -0.199866,0.0468 -0.974531,0.0848 -1.721476,0.0845 -1.280436,-4.7e-4 -1.416317,-0.0238 -2.376644,-0.40895 -0.560209,-0.22467 -1.310516,-0.62495 -1.667347,-0.8895 -0.697374,-0.51703 -1.651011,-1.574787 -2.1215,-2.353145 -0.161902,-0.267837 -0.388332,-0.481275 -0.510572,-0.481275 -0.187392,0 -0.20631,0.09562 -0.128819,0.651148 0.108593,0.77848 0.677707,1.838013 1.509078,2.809482 l 0.607888,0.71034 -1.051248,-0.26958 c -0.578186,-0.14827 -1.404539,-0.37111 -1.836339,-0.4952 -0.845651,-0.24302 -1.184128,-0.21404 -1.184128,0.10139 0,0.38912 1.942762,1.26465 4.006343,1.80552 1.83852,0.48188 3.52094,0.60832 5.811658,0.43674 2.655807,-0.1989 2.652253,-0.19925 4.087425,0.40673 2.108859,0.89045 3.847539,2.41859 4.72005,4.14847 0.349322,0.69258 0.439841,1.04784 0.490512,1.92511 0.07371,1.27608 -0.140504,2.09086 -0.911579,3.46734 -0.814055,1.45321 -1.458383,2.14607 -5.050929,5.43142 -3.927033,3.59123 -3.789458,3.51163 -6.023548,3.48516 -0.904207,-0.0108 -2.055155,-0.13235 -3.443856,-0.36395 -2.380201,-0.39695 -2.786152,-0.57741 -3.271474,-1.4543 -2.758158,-4.98348 -3.972686,-6.69525 -6.017732,-8.48146 -1.276648,-1.11507 -2.932277,-2.15477 -4.806201,-3.0182 -1.334957,-0.61509 -1.677602,-0.66938 -1.677602,-0.26581 0,0.20221 0.154203,0.3477 0.598794,0.56495 1.530707,0.748 5.594922,4.32715 6.415139,5.6495 l 0.195447,0.3151 -1.058286,-0.44188 c -1.605593,-0.6704 -2.493449,-0.89489 -4.793012,-1.21186 -2.989852,-0.41211 -5.603459,-0.90443 -7.535089,-1.41935 -1.86198,-0.49636 -1.971488,-0.51212 -1.971488,-0.28375 0,0.2622 1.045609,0.93093 2.295924,1.46838 0.908517,0.39053 3.29415,1.12596 4.426584,1.36462 0.267283,0.0564 -2.456898,0.5364 -3.661178,0.64519 -2.703571,0.24424 -2.718289,0.247 -2.764222,0.51616 -0.03535,0.20713 0.05512,0.27073 0.543233,0.38184 0.839746,0.19116 5.529408,0.0589 8.049095,-0.22696 1.650441,-0.18726 2.19646,-0.20843 2.913298,-0.11294 1.622264,0.2161 3.661456,1.33244 5.111431,2.79822 0.894562,0.90431 2.138624,2.82618 1.742849,2.69241 -1.595595,-0.53931 -4.992861,-1.31547 -7.045409,-1.60964 -2.482836,-0.35583 -6.200611,-0.26708 -11.869263,0.28337 -2.643979,0.25674 -4.8363444,0.49107 -4.8719224,0.52074 -0.03558,0.0297 -0.03276,0.1233 0.0063,0.2081 0.122981,0.26723 2.6638914,0.6332 4.5121844,0.64988 l 0.950657,0.009 -2.30874,0.98578 c -2.24169,0.95716 -2.724499,1.27793 -2.183814,1.45094 0.436709,0.13974 4.428113,-0.98008 6.360238,-1.78441 2.450163,-1.01999 3.698674,-1.3671 4.922728,-1.36862 1.012934,-8.3e-4 2.228499,0.30432 2.812453,0.70701 l 0.311137,0.21457 -0.970099,0.78266 c -1.900739,1.53351 -3.121418,1.93101 -5.292868,1.72358 -1.610326,-0.15383 -1.57176,-0.15731 -1.5215,0.13711 0.0321,0.188 0.229142,0.31585 0.756544,0.49085 0.392232,0.13013 0.746373,0.26432 0.786984,0.29818 0.04061,0.0339 -0.615136,0.29145 -1.457214,0.57241 -1.563556,0.52168 -1.941081,0.75372 -1.637779,1.00663 0.128846,0.10744 0.451673,0.0948 1.48821,-0.0584 3.142891,-0.46434 6.219137,-1.65561 9.183984,-3.55645 0.769865,-0.49358 0.814231,-0.50635 1.518975,-0.43728 0.802876,0.0787 4.959124,1.16544 4.944557,1.29288 -0.02252,0.19698 -7.111109,5.30457 -7.567979,5.45301 -0.391879,0.12731 -1.277495,0.16386 -3.99674,0.16496 -2.996064,8.4e-4 -3.50456,0.0259 -3.572358,0.17318 -0.130337,0.28322 0.278261,0.42457 1.6698,0.57765 2.153506,0.23691 2.155918,0.23921 0.700007,0.66851 -1.381949,0.40748 -1.755033,0.60536 -1.755033,0.93087 0,0.15444 0.101428,0.20893 0.388892,0.20893 0.63694,0 6.616678,-1.29839 8.314187,-1.80528 1.787129,-0.53364 2.30255,-0.83712 5.6645,-3.3353 2.32366,-1.72666 2.9055,-1.99098 4.386185,-1.99256 2.83905,-0.003 5.933374,1.32055 7.652535,3.27337 1.377835,1.5651 3.064676,5.43495 3.06358,7.02828 -6.68e-4,0.9301 -0.202444,1.21889 -1.716042,2.45567 -1.320054,1.07863 -3.241426,2.31327 -5.079277,3.26386 -1.462862,0.75664 -2.138804,0.99471 -3.863495,1.36075 l -1.22065,0.25906 -0.476953,-0.31035 c -1.63945,-1.06678 -4.583261,-1.84675 -9.028594,-2.39211 -2.311217,-0.28355 -2.788347,-0.28447 -2.788347,-0.006 0,0.27013 0.05204,0.28631 4.074247,1.26684 3.091549,0.75365 4.605246,1.24317 4.711393,1.52362 0.02462,0.065 -2.373658,0.634 -5.489653,1.30229 -4.635994,0.99428 -5.54123,1.22084 -5.581789,1.39695 -0.02662,0.11562 0.0048,0.25454 0.06974,0.30872 0.06699,0.0559 1.667987,-0.0638 3.697535,-0.27626 2.041816,-0.21379 3.493726,-0.32208 3.379969,-0.2521 -2.708224,1.66611 -5.552429,3.54281 -5.613865,3.70421 -0.101647,0.26705 0.02436,0.43858 0.32219,0.43858 0.337612,0 2.696321,-1.11773 6.037462,-2.86098 l 2.916969,-1.52194 2.609598,-0.25097 c 1.435281,-0.13803 2.642811,-0.22327 2.683404,-0.18942 0.07404,0.0617 -0.245492,0.46678 -2.689896,3.40974 -1.929806,2.32342 -2.376056,2.76325 -3.059232,3.01524 -0.327462,0.12078 -1.986448,0.55169 -3.686636,0.95756 -3.841903,0.91716 -6.214031,1.76356 -6.118223,2.18306 0.06846,0.29977 0.513205,0.27261 2.291547,-0.13996 2.141835,-0.49689 2.972578,-0.63887 3.738005,-0.63887 h 0.61257 l -0.924823,0.58713 c -4.282763,2.71895 -4.735468,3.07065 -4.264757,3.31322 0.151627,0.0781 2.659619,-0.86049 4.222688,-1.58035 1.396588,-0.64319 3.207777,-1.63415 4.137157,-2.26355 1.090277,-0.73838 1.060058,-0.73888 0.950773,0.0158 -0.283046,1.95457 -1.202793,3.28334 -3.686167,5.32549 -0.982918,0.80829 -1.537572,1.34955 -1.537572,1.50046 0,0.33368 0.292849,0.29869 1.338224,-0.15988 1.201089,-0.52689 2.297457,-1.25857 3.11836,-2.08108 0.906758,-0.90853 1.996747,-2.62733 2.199365,-3.46818 0.643204,-2.66924 2.4252,-5.72625 4.534102,-7.77824 0.787516,-0.76626 2.511623,-2.06743 2.619861,-1.97717 0.03237,0.027 -0.110465,1.40608 -0.317411,3.06465 l -0.376266,3.01558 -2.34553,2.03976 c -2.260057,1.96542 -2.373463,2.08656 -3.111996,3.3242 -0.493293,0.82666 -0.772511,1.43938 -0.783429,1.71916 -0.02841,0.72794 0.310674,0.59639 1.126693,-0.43712 0.442468,-0.56041 1.402061,-1.48598 2.404946,-2.31968 1.539066,-1.27943 2.037905,-1.60948 1.882733,-1.24566 -0.299126,0.70134 -2.411713,6.5323 -2.425539,6.69476 -0.02662,0.31277 0.400511,0.5097 0.642067,0.29602 0.104417,-0.0924 1.164746,-2.30822 2.356282,-4.92411 l 2.166434,-4.75618 0.165466,-1.98173 c 0.190082,-2.27656 0.477481,-4.23999 0.786654,-5.37422 0.189931,-0.69678 0.303105,-0.86523 0.978367,-1.45618 1.65295,-1.44659 3.978259,-2.63931 5.679698,-2.91329 0.706069,-0.1137 0.998157,-0.10613 1.81087,0.0469 3.177182,0.59829 6.724447,2.85388 9.709817,6.17418 0.96066,1.06844 2.4624,3.47933 3.31844,5.32745 0.53865,1.16288 0.54337,1.18578 0.29207,1.41553 -1.39356,1.274 -0.95111,3.58746 1.2286,6.42403 1.56264,2.03355 4.65217,5.09648 5.79132,5.74148 0.97835,0.55394 3.5792,1.64322 5.69746,2.38616 2.29332,0.80434 2.99507,0.76708 4.00051,-0.21237 0.4119,-0.40125 0.508,-0.4419 0.85948,-0.36352 0.35675,0.0795 0.4176,0.16559 0.61779,0.87346 0.12213,0.43186 0.28742,0.91968 0.36732,1.08404 0.23547,0.48438 1.00528,1.13953 1.58945,1.3527 1.176697,0.42941 2.155187,0.39986 6.555067,-0.19794 2.05581,-0.27931 2.27668,-0.28953 3.18075,-0.1473 1.53571,0.24162 2.47275,0.0264 6.467505,-1.48605 1.84418,-0.69818 3.46652,-1.37612 3.6052,-1.50653 0.21778,-0.2048 0.24492,-0.38682 0.1992,-1.33597 -0.0523,-1.08616 -0.0491,-1.09965 0.27823,-1.16816 0.23942,-0.0501 0.48543,0.0231 0.88803,0.26415 1.65624,0.99179 3.26028,0.71638 6.55302,-1.12512 3.59606,-2.01114 7.14904,-4.21581 9.16568,-5.68744 0.84696,-0.61807 1.27358,-1.02536 1.52775,-1.45853 0.40358,-0.68783 0.37886,-0.85014 -0.30029,-1.9718 l -0.41981,-0.69333 0.30755,-0.24092 c 0.40676,-0.31863 0.48396,-0.30874 1.21302,0.15544 0.85025,0.54134 1.37337,0.53009 2.78715,-0.06 0.60133,-0.25097 1.52181,-0.73236 2.04551,-1.06976 0.52371,-0.33739 1.36801,-0.75073 1.87623,-0.9185 1.81713,-0.59988 2.10051,-0.77151 3.93904,-2.38544 l 1.78642,-1.56818 2.46776,-0.96137 c 1.93518,-0.75388 2.50887,-1.02762 2.65816,-1.26835 0.21048,-0.3394 0.23722,-1.02808 0.0682,-1.75621 -0.0839,-0.36121 -0.0661,-0.48956 0.0738,-0.53434 0.1013,-0.0324 0.18419,-0.005 0.18419,0.0615 0,0.25129 0.58654,0.79213 1.09249,1.00736 0.73342,0.31199 1.56171,0.28145 3.09634,-0.11414 3.33426,-0.8595 8.10314,-1.35885 12.99091,-1.36029 1.79692,-4.3e-4 2.25472,-0.0349 2.64556,-0.19863 0.62506,-0.26186 1.06353,-0.83173 1.17394,-1.52572 l 0.0898,-0.56436 1.03314,0.0734 c 7.3336,0.52109 11.21306,1.86279 12.81427,4.43175 0.88675,1.42271 1.52394,3.9529 1.38098,5.48373 -0.0204,0.21799 -0.0746,0.80402 -0.12051,1.30228 -0.0459,0.49827 -0.27048,1.92512 -0.49899,3.17079 -0.55862,3.04528 -0.51618,3.84247 0.29242,5.49223 0.88656,1.80882 2.83314,5.23625 3.73027,6.56805 0.44054,0.65397 1.31362,1.82394 1.9402,2.59993 l 1.13923,1.4109 -0.0942,1.31644 -0.0942,1.31645 0.37395,0.24527 c 0.54331,0.35635 1.33093,0.32246 2.3473,-0.10103 1.01245,-0.42186 1.52102,-0.89114 1.52102,-1.40349 0,-0.32706 -0.0523,-0.38223 -0.42087,-0.4437 -0.92533,-0.15431 -2.82459,-2.20737 -5.04204,-5.45036 -1.39394,-2.0386 -2.44651,-3.68037 -2.35956,-3.68037 0.0401,0 0.48736,0.22294 0.99387,0.49542 2.98172,1.60402 6.7197,2.64785 10.2238,2.855 1.47321,0.0871 1.65926,0.17524 1.90322,0.90183 0.20287,0.60419 0.38454,0.63053 1.23753,0.17946 0.82479,-0.43615 1.13017,-0.97468 1.13413,-2.00003 0.003,-0.63412 -0.0674,-0.91009 -0.3438,-1.3589 -0.42308,-0.68693 -0.76051,-0.76835 -1.18767,-0.28659 -0.16701,0.18837 -0.50121,0.43203 -0.74264,0.54146 -1.36954,0.62073 -7.66682,-0.30678 -10.25128,-1.50989 -2.01205,-0.93664 -4.67603,-3.84706 -4.69217,-5.12622 -0.003,-0.22565 0.19745,-1.61477 0.44511,-3.08694 l 0.45029,-2.67667 1.37221,0.85371 c 1.89541,1.17921 2.32269,1.32982 3.74885,1.32143 0.85897,-0.005 1.68387,-0.11626 3.22344,-0.43458 2.3794,-0.49194 2.84498,-0.4807 3.74293,0.0904 0.31368,0.19949 1.25923,0.9972 2.10125,1.77269 1.66249,1.53112 1.93285,1.96532 1.93285,3.10398 0,1.21532 0.87018,1.41527 2.40247,0.55203 0.54049,-0.3045 0.88651,-0.60341 1.09849,-0.94893 0.49439,-0.80581 0.41843,-0.90145 -1.07509,-1.35372 l -1.30887,-0.39634 -1.03958,-1.04246 c -1.32589,-1.32955 -2.89636,-2.53662 -3.82893,-2.94291 -0.40123,-0.1748 -0.72966,-0.35208 -0.72983,-0.39394 -0.002,-0.1921 1.24816,-0.95289 2.13113,-1.29815 1.02198,-0.39961 2.73736,-0.6951 3.31114,-0.57037 0.18108,0.0394 0.46867,0.25267 0.63907,0.47402 0.37176,0.4829 1.04328,0.84677 1.56379,0.84736 0.32556,3.4e-4 0.42706,-0.0844 0.71167,-0.59411 0.55563,-0.99514 0.40613,-2.44799 -0.29953,-2.91083 -0.56221,-0.36875 -1.13378,-0.30148 -1.8395,0.21649 -0.5498,0.40354 -0.70374,0.45495 -1.54696,0.51656 -1.23256,0.09 -2.87156,0.37714 -3.38096,0.5922 -0.22409,0.0946 -1.4158,0.76147 -2.64826,1.48191 -1.23246,0.72045 -2.48529,1.38449 -2.78407,1.47566 -0.77969,0.2379 -2.91944,0.22318 -3.92232,-0.0269 -0.61912,-0.15443 -0.95561,-0.33125 -1.49632,-0.78627 -0.66042,-0.55576 -0.72541,-0.66547 -1.21976,-2.05918 -0.64588,-1.82092 -1.73491,-4.28607 -2.32791,-5.2695 -0.59155,-0.98104 -1.91668,-2.44971 -2.64529,-2.93185 -0.32219,-0.2132 -0.88853,-0.52567 -1.25851,-0.69438 l -0.67271,-0.30674 0.93166,-0.25547 c 1.50292,-0.41212 1.93695,-0.64597 3.49999,-1.88578 1.95021,-1.54691 3.09345,-1.9894 6.19129,-2.39635 2.29717,-0.30177 2.4436,-0.29619 3.42523,0.13046 1.0228,0.44453 3.0454,1.71002 4.65536,2.91273 1.25979,0.94113 1.33103,0.9753 3.66544,1.7588 1.75066,0.58756 1.76988,0.59799 2.51969,1.36782 0.96518,0.9909 1.29303,1.05378 1.86493,0.35763 0.94511,-1.15041 1.27811,-2.05718 0.94851,-2.58282 z m -0.58881,1.35809 c -0.47744,0.85529 -0.97867,1.38514 -1.20755,1.27648 -0.10033,-0.0476 -0.4591,-0.40059 -0.79723,-0.78433 -0.33815,-0.38374 -0.75644,-0.73398 -0.92954,-0.77832 -0.1731,-0.0444 -1.11677,-0.35875 -2.09704,-0.6987 -1.70022,-0.58963 -1.86287,-0.67572 -3.53102,-1.86901 -2.12117,-1.51735 -3.37019,-2.27134 -4.51275,-2.72418 l -0.86274,-0.34194 -1.3781,0.13695 c -2.77529,0.2758 -4.98602,0.78599 -5.97752,1.37948 -0.28885,0.1729 -1.18363,0.82121 -1.98838,1.44069 -1.51613,1.16706 -1.84182,1.32138 -3.80352,1.80206 -0.52865,0.12953 -0.8116,0.25841 -0.80997,0.36895 0.002,0.0981 0.397,0.32434 0.9366,0.53567 2.69798,1.05658 4.43062,3.4674 6.398,8.90228 0.7261,2.00584 1.32748,2.59086 3.07294,2.98927 0.95934,0.21898 3.12875,0.24052 3.97518,0.0394 0.36191,-0.086 1.51676,-0.68127 2.90246,-1.49617 1.26578,-0.74438 2.47489,-1.42821 2.68692,-1.51964 0.5655,-0.24384 1.93001,-0.48157 3.27205,-0.57008 1.13957,-0.0751 1.19502,-0.0921 1.69122,-0.51579 0.73131,-0.62449 1.34593,-0.5483 1.69153,0.2097 0.3405,0.74675 -0.0968,2.40976 -0.63373,2.40976 -0.23998,0 -1.33129,-0.8511 -1.43415,-1.11848 -0.0929,-0.24136 -1.28162,-0.28143 -2.42516,-0.0817 -1.27991,0.22352 -2.70934,0.80854 -3.63287,1.48681 -0.80544,0.59155 -0.90874,0.8981 -0.33491,0.9938 0.68925,0.11494 2.02555,0.97466 3.47389,2.23498 0.78653,0.68443 1.60001,1.44155 1.80772,1.6825 0.32852,0.38109 0.5339,0.47971 1.57873,0.75814 0.66058,0.17603 1.22977,0.35878 1.26483,0.40609 0.2084,0.28117 -0.75402,1.15696 -1.72556,1.57024 -1.02927,0.43785 -1.12281,0.36285 -1.27797,-1.02459 -0.0453,-0.40484 -0.18591,-0.92546 -0.31252,-1.15694 -0.30493,-0.55749 -3.16041,-3.16886 -3.92972,-3.59376 -0.96152,-0.53106 -1.48341,-0.54091 -3.82441,-0.0721 -3.82243,0.76536 -4.24973,0.71565 -6.66803,-0.77574 -0.85899,-0.52975 -1.66597,-0.96459 -1.7933,-0.9663 -0.27215,-0.004 -0.23303,-0.16259 -0.85266,3.46267 -0.50972,2.98209 -0.50644,3.06422 0.16714,4.17804 0.51855,0.85743 1.06872,1.48205 2.12799,2.41592 1.95467,1.72328 3.8375,2.39796 8.43142,3.02126 2.73946,0.37169 4.58381,0.20328 5.22571,-0.47717 0.14499,-0.15369 0.32147,-0.24964 0.39217,-0.2132 0.20289,0.10455 0.5614,1.08436 0.5614,1.5343 0,0.56292 -0.51673,1.36519 -1.08057,1.67771 l -0.46944,0.26019 -0.17961,-0.51362 c -0.10195,-0.29156 -0.31001,-0.58145 -0.48122,-0.67051 -0.16645,-0.0866 -0.86831,-0.18795 -1.56606,-0.22619 -3.66153,-0.20065 -7.32391,-1.26403 -10.55228,-3.06391 -1.29134,-0.71992 -1.6962,-0.86996 -1.6962,-0.62857 0,0.20132 1.30981,2.3011 2.66134,4.26647 2.48242,3.60987 3.95256,5.26384 5.10415,5.74233 l 0.66508,0.27636 -0.42426,0.40293 c -0.23337,0.22161 -0.82347,0.56679 -1.31135,0.76707 l -0.88708,0.36414 -0.49333,-0.22048 c -0.27135,-0.12127 -0.49174,-0.29682 -0.48977,-0.39012 0.002,-0.0933 0.0545,-0.70959 0.11666,-1.36952 l 0.11306,-1.19987 -0.65989,-0.72296 c -1.60873,-1.76251 -3.91873,-5.36857 -5.80825,-9.06707 -0.97978,-1.9178 -1.24855,-2.97248 -1.01881,-3.99791 0.64846,-2.89428 0.86311,-4.60388 0.86093,-6.85709 -0.003,-2.7119 -0.17155,-3.42638 -1.22432,-5.17836 -1.36152,-2.26574 -3.76952,-3.45641 -8.50505,-4.20541 -1.55773,-0.24638 -3.75947,-0.45739 -5.19718,-0.49808 l -0.948,-0.0268 -0.0898,0.59574 c -0.1055,0.69962 -0.37695,1.08674 -0.97532,1.39098 -0.378,0.19217 -0.69113,0.22071 -2.42637,0.22107 -5.17368,8.4e-4 -10.50377,0.59527 -13.76833,1.53482 -0.86179,0.24802 -1.07782,0.27135 -1.54387,0.16671 -0.67065,-0.15059 -1.27813,-0.5652 -1.50897,-1.0299 -0.15596,-0.31394 -0.22063,-0.34495 -0.59056,-0.28327 -0.22848,0.0381 -0.46271,0.10872 -0.52053,0.15691 -0.0578,0.0482 -0.0314,0.5096 0.0588,1.02533 0.13891,0.79464 0.13357,0.98053 -0.035,1.21863 -0.13823,0.19531 -0.95659,0.58592 -2.68505,1.28158 l -2.48621,1.00065 -1.77704,1.54708 c -1.82738,1.59091 -2.07844,1.74334 -3.82362,2.3214 -0.59511,0.19712 -1.43753,0.60726 -2.01518,0.98111 -1.06972,0.69231 -2.69183,1.40359 -3.20098,1.40359 -0.17312,0 -0.63237,-0.17836 -1.02058,-0.39635 -0.38821,-0.21799 -0.85608,-0.39634 -1.03972,-0.39634 -0.36675,0 -1.09572,0.51314 -1.09572,0.7713 0,0.0895 0.24329,0.56803 0.54064,1.06342 0.53145,0.88536 0.53713,0.90776 0.3329,1.31655 -0.26488,0.5302 -0.87587,1.05759 -2.57114,2.21938 -3.10131,2.12536 -8.86024,5.50919 -10.44222,6.13563 -1.35479,0.53648 -2.28287,0.61513 -3.12423,0.26476 -0.34551,-0.14389 -0.72873,-0.35425 -0.85161,-0.46746 -0.25448,-0.23448 -0.63316,-0.26012 -1.23932,-0.0839 l -0.41949,0.12193 0.079,1.16268 c 0.0758,1.11643 0.0667,1.16983 -0.22883,1.34245 -0.64129,0.37453 -6.629705,2.56638 -7.518955,2.75203 -0.81643,0.17046 -1.06504,0.1767 -2.03712,0.0512 -1.04265,-0.13463 -1.25768,-0.12241 -3.68757,0.20962 -3.57329,0.48827 -4.453,0.53887 -5.39552,0.3104 -0.477917,-0.11584 -0.929917,-0.32295 -1.204477,-0.55188 -0.5614,-0.46813 -1.06033,-1.37644 -1.16645,-2.12357 -0.0888,-0.6254 -0.24132,-0.73559 -1.20413,-0.86999 -0.35598,-0.0497 -0.45996,-0.002 -0.7347,0.33157 -0.43422,0.5284 -1.12271,0.90136 -1.66293,0.90081 -0.84447,-8.3e-4 -5.98421,-2.01528 -7.77215,-3.04616 -0.51813,-0.29874 -1.12927,-0.75614 -1.35808,-1.01645 -0.22882,-0.26031 -0.94154,-0.99921 -1.58382,-1.64201 -2.32205,-2.32388 -3.88236,-4.4575 -4.33213,-5.92389 -0.42405,-1.38251 -0.3143,-2.12963 0.41452,-2.82179 0.22001,-0.20893 0.40002,-0.45822 0.40002,-0.55395 0,-0.25566 -1.36288,-3.04056 -2.0338,-4.15586 -3.14652,-5.23049 -9.581167,-9.44103 -13.676887,-8.94949 -1.763665,0.21166 -3.878142,1.21507 -5.78928,2.74725 -0.878892,0.70462 -1.056674,0.91301 -1.23369,1.44608 -0.307957,0.92742 -0.587179,2.71607 -0.839701,5.37901 l -0.225508,2.37808 -1.325389,2.88768 c -0.728964,1.58822 -1.618605,3.53691 -1.976978,4.33041 -0.358374,0.79351 -0.672376,1.42541 -0.697783,1.40422 -0.02541,-0.0212 0.47428,-1.4392 1.110417,-3.15114 0.636136,-1.71195 1.156611,-3.1974 1.156611,-3.30103 0,-0.29427 -0.253679,-0.22664 -1.074125,0.28634 -1.192501,0.74561 -2.41209,1.75982 -3.425591,2.84871 -0.512938,0.5511 -0.932614,0.96686 -0.932614,0.92393 0,-0.0429 0.28735,-0.54198 0.638556,-1.10899 0.5596,-0.90345 0.93388,-1.29072 3.027082,-3.13215 l 2.388531,-2.10122 0.381069,-3.17078 c 0.209588,-1.74393 0.390521,-3.27253 0.402074,-3.3969 0.01422,-0.15304 -0.07474,-0.2376 -0.27529,-0.26166 -0.450127,-0.054 -3.585169,2.58354 -4.589441,3.86111 -1.408342,1.79162 -2.357992,3.66387 -3.056406,6.02577 -0.577557,1.95318 -2.200232,3.94959 -4.138368,5.0915 -1.513318,0.89162 -1.509894,0.78009 0.0162,-0.52767 1.702338,-1.45879 2.480667,-2.37969 2.881953,-3.40984 0.555199,-1.42527 0.740544,-3.02248 0.350736,-3.02248 -0.114291,0 -0.618102,0.29022 -1.119579,0.64496 -1.344249,0.95087 -3.498948,2.085 -5.802552,3.05417 -1.120418,0.47138 -1.97601,0.80882 -1.901315,0.74987 0.07469,-0.0589 1.190019,-0.78503 2.4785,-1.6135 1.502689,-0.96621 2.342692,-1.57972 2.342692,-1.71101 0,-0.48655 -1.878732,-0.38344 -4.601513,0.25254 -0.775511,0.18114 -1.431563,0.31139 -1.457892,0.28943 -0.139938,-0.11668 2.96248,-1.05212 5.496921,-1.65742 3.983502,-0.95137 4.081686,-0.99116 5.025879,-2.03657 1.731114,-1.9167 4.771565,-5.65268 4.771565,-5.8631 0,-0.20394 -0.418489,-0.19314 -3.531014,0.0912 l -2.648261,0.2419 -2.64826,1.38334 c -2.248052,1.17428 -5.297907,2.6841 -5.77185,2.85733 -0.222149,0.0812 0.154306,-0.16553 3.0418,-1.99359 2.607233,-1.65063 3.017408,-1.96166 2.812398,-2.13261 -0.04786,-0.0399 -1.595297,0.0881 -3.438752,0.28454 -1.843455,0.19641 -3.368383,0.34322 -3.38873,0.32626 -0.03817,-0.0319 9.319726,-2.05276 10.106388,-2.18258 0.828494,-0.13672 0.45682,-0.66539 -0.848802,-1.20734 -0.373473,-0.15502 -2.019349,-0.60651 -3.657503,-1.0033 -1.638153,-0.3968 -2.872946,-0.73839 -2.743982,-0.75911 0.128964,-0.0207 0.858135,0.048 1.620379,0.15281 3.949706,0.5428 6.782307,1.34262 8.109334,2.28976 l 0.540513,0.38578 0.781794,-0.13319 c 2.415402,-0.41151 4.227258,-1.14096 7.041064,-2.83475 1.451361,-0.87365 3.761909,-2.69711 4.287779,-3.38385 0.722408,-0.9434 0.51135,-2.32955 -0.816934,-5.36533 -0.864308,-1.97536 -1.710323,-3.18943 -2.938738,-4.21721 -1.140371,-0.95412 -2.268777,-1.52964 -3.932749,-2.00582 -1.09868,-0.31441 -1.401653,-0.35238 -2.858627,-0.35825 -1.508025,-0.006 -1.680467,0.0158 -2.309685,0.29281 -0.373993,0.16465 -1.137915,0.64178 -1.697604,1.06027 -3.776134,2.82351 -4.723759,3.41351 -6.246233,3.88897 -1.826371,0.57037 -7.298283,1.78222 -7.630446,1.6899 -0.06496,-0.0181 0.539959,-0.23727 1.344264,-0.48715 2.029934,-0.63064 2.007629,-0.74893 -0.19319,-1.02463 l -1.737027,-0.2176 2.987782,-0.009 c 1.900428,-0.006 3.197633,-0.0585 3.564402,-0.14579 0.456706,-0.10865 1.353426,-0.71463 4.311912,-2.91393 2.198302,-1.63418 3.73529,-2.85831 3.73529,-2.97493 0,-0.15354 -0.420654,-0.31711 -1.867364,-0.72613 -3.783655,-1.06973 -4.258339,-1.10032 -5.408591,-0.34858 -2.353707,1.53828 -5.033513,2.67424 -7.730855,3.2771 -1.849236,0.41331 -1.936252,0.32068 -0.237665,-0.25297 1.768264,-0.59719 1.928818,-0.79445 0.882754,-1.08458 l -0.645089,-0.17892 1.396396,-0.0108 c 0.874198,-0.007 1.569844,-0.0713 1.860208,-0.17241 0.782466,-0.27262 2.135212,-1.09117 2.964529,-1.79387 1.077223,-0.91274 1.045582,-1.12965 -0.243351,-1.6683 -0.925371,-0.38671 -0.98647,-0.39612 -2.512452,-0.38737 -1.818331,0.0104 -2.077488,0.0768 -5.162933,1.32206 -1.654583,0.66778 -4.832273,1.64177 -4.973138,1.52431 -0.02265,-0.0188 0.935933,-0.43917 2.130177,-0.93396 1.51887,-0.62929 2.159568,-0.95106 2.132137,-1.07078 -0.03185,-0.13896 -0.409282,-0.1857 -2.006889,-0.24852 -1.082219,-0.0425 -2.212126,-0.1244 -2.510904,-0.18186 -0.493909,-0.095 -0.512406,-0.11084 -0.203713,-0.1745 0.501103,-0.10335 6.281699,-0.61308 8.555919,-0.75447 1.083071,-0.0673 2.183117,-0.14053 2.444548,-0.16267 0.261431,-0.0222 0.903125,0.002 1.425987,0.0555 0.522862,0.0527 1.530265,0.15524 2.238674,0.22787 1.775243,0.18198 3.638707,0.56781 6.077796,1.25837 1.138109,0.32222 2.109604,0.55226 2.158876,0.51117 0.1427,-0.11899 -0.444771,-1.28261 -1.138512,-2.25508 -1.460198,-2.04687 -4.214158,-3.79201 -6.390208,-4.04934 -0.737181,-0.0872 -1.345776,-0.0646 -2.890851,0.10695 -2.770003,0.30767 -5.833652,0.48048 -6.926492,0.39068 -1.105669,-0.0909 -1.114533,-0.2728 -0.01354,-0.27787 1.795937,-0.008 5.646646,-0.76997 5.566076,-1.10101 -0.02526,-0.10382 -0.637753,-0.30704 -1.669605,-0.55397 -1.629577,-0.38997 -4.279976,-1.35336 -4.485266,-1.63032 -0.0763,-0.10295 -0.04644,-0.12691 0.0998,-0.0801 1.215678,0.38899 4.447267,0.99846 7.702909,1.45275 2.527899,0.35275 3.184147,0.52334 5.042094,1.31069 1.699172,0.72007 1.879691,0.67052 1.300627,-0.35701 -0.507006,-0.89967 -1.499142,-1.91502 -3.620524,-3.70525 -1.60939,-1.35817 -1.86113,-1.61156 -1.359176,-1.36812 2.135502,1.03566 4.278102,2.73809 5.708482,4.53573 0.900564,1.1318 2.95807,4.40072 3.748529,5.95559 0.251264,0.49425 0.59214,0.92768 0.94091,1.19641 0.480148,0.36995 0.720519,0.45234 1.96922,0.67499 3.483572,0.62112 5.282717,0.70205 6.665256,0.29984 0.538567,-0.15669 0.963098,-0.49125 3.055686,-2.40808 1.336623,-1.22436 2.880612,-2.63619 3.431088,-3.1374 2.29006,-2.08512 3.497036,-4.17058 3.640565,-6.2903 0.118707,-1.75315 -0.346268,-2.97201 -1.728004,-4.52969 -1.124156,-1.26729 -2.129198,-1.93856 -4.028551,-2.69068 -1.181237,-0.46776 -1.302129,-0.47608 -3.8259,-0.26344 -2.322755,0.19571 -3.551769,0.10758 -5.553746,-0.39826 -1.36723,-0.34546 -3.520873,-1.13558 -3.390829,-1.24402 0.0233,-0.0194 0.706869,0.14051 1.519033,0.35543 1.574519,0.41664 2.24885,0.48844 2.24885,0.23944 0,-0.0832 -0.308704,-0.47204 -0.686011,-0.86405 -0.636121,-0.66093 -1.568963,-2.011515 -1.45498,-2.106564 0.02735,-0.02276 0.341212,0.280312 0.697473,0.673583 1.495999,1.651421 3.401671,2.467141 5.69421,2.437421 1.023263,-0.0133 2.298089,-0.22677 2.364048,-0.39592 0.02654,-0.068 -0.462193,-0.70504 -1.086065,-1.41553 -1.587127,-1.807486 -2.638643,-3.13993 -3.543087,-4.489689 -0.763882,-1.139982 -1.492326,-2.4076 -1.383544,-2.4076 0.03046,0 0.856326,0.942746 1.835258,2.094977 1.663903,1.958478 2.180183,2.403447 2.180183,1.879046 0,-0.409139 -0.809477,-3.807506 -1.283769,-5.389547 -0.261414,-0.871962 -0.51214,-1.712788 -0.55717,-1.868499 -0.130302,-0.450565 0.829381,0.863365 1.282024,1.755255 0.221267,0.435981 0.62854,1.582559 0.905051,2.547952 1.232862,4.304302 1.501628,4.917223 2.689325,6.132975 0.890504,0.91154 3.460103,2.58667 3.967879,2.58667 0.200039,0 0.220174,-0.0816 0.146579,-0.59452 -0.104938,-0.73126 -1.68603,-6.626551 -2.796949,-10.428737 -0.452076,-1.547254 -0.820345,-2.846709 -0.818377,-2.887675 0.002,-0.04094 0.543045,1.072099 1.202393,2.473474 0.739495,1.57171 1.276009,2.560618 1.400286,2.581005 0.196289,0.03219 0.361774,-0.841877 0.739963,-3.908518 0.118598,-0.961658 0.320565,-0.78114 0.320766,0.286708 4.07e-4,1.918386 0.697911,5.772554 1.567194,8.659231 0.258371,0.857978 0.469765,1.584142 0.469765,1.613692 0,0.0295 0.113852,0.0537 0.253005,0.0537 0.189738,0 0.377032,-0.24778 0.748977,-0.990866 0.844603,-1.687372 1.053973,-2.435878 1.132445,-4.048497 0.08149,-1.674589 -0.07528,-2.532233 -1.127036,-6.165677 -0.332587,-1.148979 -0.585785,-2.136385 -0.562661,-2.194229 0.02312,-0.05787 0.520226,1.009629 1.104669,2.372162 1.624353,3.786895 1.563674,3.666372 1.845789,3.666372 0.31302,0 0.624244,-1.055465 1.285584,-4.359825 0.446521,-2.231035 0.453881,-2.252164 0.492972,-1.415524 0.136617,2.923863 -0.288333,5.682476 -1.27426,8.272011 -0.45477,1.194448 -0.488714,1.466813 -0.182806,1.466813 0.08967,0 1.566583,-0.961049 3.282033,-2.135652 1.71545,-1.174611 3.14102,-2.120225 3.16793,-2.101364 0.12575,0.08811 -1.81671,1.875769 -3.98867,3.670807 -3.772631,3.117908 -5.025485,4.852669 -5.000378,6.923739 0.01344,1.10929 0.23639,1.88251 0.828004,2.87171 0.823631,1.37713 3.392834,3.29291 5.417574,4.03973 1.34509,0.49614 3.61856,0.0731 4.98571,-0.92791 0.28989,-0.21223 0.73989,-0.75203 1.0352,-1.24178 0.58195,-0.96511 1.23012,-1.72749 2.12501,-2.49941 0.89529,-0.77228 1.0911,-1.33989 1.55535,-4.50857 0.22473,-1.533964 0.549,-3.712454 0.7206,-4.841087 l 0.31198,-2.052068 0.76201,-1.288572 c 0.79351,-1.341846 3.41444,-5.281258 3.64492,-5.478536 0.14233,-0.121824 -0.57168,1.595133 -1.90449,4.579675 -0.4573,1.02402 -0.83146,1.954025 -0.83146,2.066668 0,0.32127 0.29605,0.246841 1.37461,-0.345601 1.38691,-0.76182 1.88665,-1.10652 3.43651,-2.370411 1.41827,-1.156575 1.43861,-1.104544 0.18039,0.461622 -0.80296,0.999488 -1.21412,1.348533 -3.31112,2.810927 -1.71904,1.19881 -1.98362,1.430725 -2.34648,2.056796 -0.46721,0.806096 -0.63814,1.680654 -0.77593,3.970147 -0.0809,1.34443 -0.066,1.54828 0.11341,1.54828 0.40096,0 2.95647,-1.66771 8.98433,-5.863111 3.35165,-2.332763 6.071207,-4.194724 6.043457,-4.137706 -0.0278,0.05703 -0.81437,0.907049 -1.748047,1.888952 -0.93369,0.981895 -1.71737,1.858343 -1.74152,1.947647 -0.0683,0.252786 0.48044,0.206333 3.445097,-0.291594 1.48662,-0.249684 2.74887,-0.440783 2.805,-0.424657 0.0561,0.01609 -1.37842,0.460046 -3.18788,0.986489 -3.174227,0.923518 -5.516257,1.783551 -6.714887,2.465822 -1.57754,0.897927 -5.06305,3.961068 -5.06305,4.449508 0,0.12337 0.0153,0.22261 0.0339,0.22054 0.0187,-0.002 1.48575,-0.19942 3.26016,-0.43855 l 3.22621,-0.43478 1.08997,-0.86832 c 1.17082,-0.93273 2.32935,-1.60458 3.901957,-2.262811 1.05531,-0.441701 2.57797,-0.94955 2.1516,-0.717602 -2.698307,1.467843 -5.515357,3.481873 -5.515357,3.943143 0,0.27549 0.0715,0.27523 3.457127,-0.0123 1.48166,-0.12584 2.71332,-0.21263 2.73703,-0.19287 0.0237,0.0198 -2.27699,0.50906 -5.112657,1.08732 -5.72126,1.16669 -5.63747,1.13379 -4.64646,1.82436 0.76338,0.53194 2.55163,1.21006 3.70077,1.40336 0.56021,0.0942 1.66026,0.20951 2.44455,0.25619 1.199597,0.0714 1.339747,0.0983 0.882747,0.16935 -0.797727,0.12408 -2.991527,0.11316 -4.006337,-0.0199 -1.17166,-0.15368 -2.33342,-0.54738 -3.81925,-1.29428 -1.63203,-0.82039 -2.32823,-0.98073 -3.69288,-0.85048 -2.23977,0.21378 -3.64579,0.69329 -4.25951,1.45267 -0.49286,0.60982 -0.77367,1.92314 -0.67987,3.17961 0.26617,3.5654 3.49708,9.40926 6.6758,12.07479 1.33875,1.12262 3.73976,2.29821 5.33433,2.61182 1.6698,0.32839 3.81275,0.0618 5.271517,-0.65592 0.6096,-0.29992 1.07043,-0.92979 1.75358,-2.39686 2.98181,-6.40348 4.41838,-8.38825 7.67614,-10.60534 l 0.74695,-0.50833 -0.6232,0.62158 c -0.91242,0.91004 -2.44377,2.66933 -3.02182,3.47164 -0.27678,0.38416 -1.0766,2.01485 -1.77737,3.62375 -0.70076,1.6089 -1.52374,3.48583 -1.82884,4.17095 -0.30509,0.68511 -0.55539,1.33484 -0.55622,1.44383 -0.002,0.26436 0.42785,0.25771 2.17045,-0.0336 1.60922,-0.26899 2.9962,-0.6789 3.603,-1.06482 0.26526,-0.16871 1.16678,-1.30566 2.38462,-3.00738 1.07697,-1.50487 2.263685,-3.05442 2.637165,-3.44344 0.95592,-0.99572 1.91093,-1.87513 1.67074,-1.53846 -1.50063,2.1033 -2.28188,3.27907 -2.28188,3.43421 0,0.28463 0.32363,0.23076 1.11778,-0.18606 0.3936,-0.20659 0.96009,-0.49266 1.25886,-0.63571 l 0.54324,-0.26011 -0.47533,0.31387 c -0.9311,0.61484 -3.225015,2.61002 -3.721765,3.23707 -0.54995,0.69422 -0.89571,1.5042 -0.89571,2.09831 0,0.4822 0.13432,0.48473 2.10503,0.0395 1.019175,-0.23025 1.688085,-0.45412 2.105025,-0.70451 1.61922,-0.97243 3.22847,-1.80495 3.92061,-2.02826 0.54099,-0.17454 1.14229,-0.25794 2.05495,-0.28502 1.42549,-0.0423 1.45005,-0.057 -0.96017,0.57532 -1.71037,0.4487 -3.09349,1.11804 -3.71553,1.79807 -0.6145,0.67178 -0.59025,0.68509 2.06139,1.13114 1.32583,0.22303 2.07446,0.37492 1.66365,0.33755 -1.52312,-0.13857 -5.33503,-0.0657 -6.65461,0.12724 -2.130985,0.31154 -3.395195,0.63574 -3.395195,0.87067 0,0.25049 1.22418,1.14911 2.33564,1.71451 1.013555,0.51559 1.926145,0.80866 3.707815,1.19069 0.74695,0.16016 1.41614,0.33387 1.4871,0.38601 0.071,0.0521 -0.46063,0.0948 -1.18131,0.0948 -1.01848,0 -1.54831,-0.0627 -2.37883,-0.28145 -1.109615,-0.29229 -2.896585,-1.12016 -3.904715,-1.80898 -0.79693,-0.54452 -1.12292,-0.62738 -2.46807,-0.62738 -1.16403,0 -3.18708,0.29515 -5.678,0.82839 -1.54403,0.33053 -1.60871,0.47735 -0.45804,1.03968 0.46641,0.22793 1.49358,0.88336 2.28261,1.4565 3.81119,2.7684 3.48688,2.63123 8.1823,3.46098 2.142645,0.37864 4.001525,0.68842 4.130835,0.68842 0.12931,0 0.20257,0.0271 0.1628,0.0603 -0.0398,0.0332 -1.40415,-0.0178 -3.03195,-0.11324 -1.627795,-0.0954 -3.072165,-0.17353 -3.209715,-0.17353 -0.4188,0 -0.28215,0.34059 0.3271,0.81531 l 0.57718,0.44974 -0.95065,-0.53556 c -0.52286,-0.29456 -2.60728,-1.49463 -4.63203,-2.66684 -2.02475,-1.17221 -4.13318,-2.33322 -4.68539,-2.58002 -1.2309,-0.55013 -2.519827,-0.91826 -3.215087,-0.91826 -0.92571,0 -3.81275,0.92865 -4.90712,1.57842 -0.25962,0.15415 -1.01164,1.25468 -2.45773,3.59674 l -2.08364,3.37462 -1.64741,1.52877 c -3.42748,3.18064 -3.89756,3.73081 -4.54749,5.32238 -0.47748,1.16923 -0.68336,2.29587 -0.68336,3.73955 0,1.46741 0.21563,2.55282 0.75714,3.81125 l 0.34979,0.8129 1.20681,-0.0202 c 1.04603,-0.0175 1.24257,0.01 1.47526,0.20628 0.14765,0.12456 1.23975,1.62785 2.42689,3.34064 l 2.15844,3.11416 1.14331,0.77192 c 0.62882,0.42456 1.89898,1.15911 2.82256,1.63235 1.83491,0.94019 1.99879,1.09393 2.45721,2.30509 0.23636,0.62445 0.37758,0.8203 0.68803,0.95417 0.59606,0.25701 0.75621,0.21046 1.13625,-0.33027 0.24487,-0.34841 0.53868,-0.57467 0.97488,-0.75075 0.698757,-0.28206 1.433947,-0.26538 3.423277,0.0776 0.60397,0.10415 1.35639,0.15553 1.792,0.12237 0.41299,-0.0314 2.9319,-0.6007 5.59759,-1.26501 l 4.846715,-1.20785 0.52481,0.22325 c 0.28864,0.12279 0.83616,0.45667 1.21671,0.74196 0.76851,0.57615 0.83426,0.59234 1.40568,0.34594 0.38205,-0.16474 0.40068,-0.20738 0.40068,-0.91713 0,-1.14158 0.15519,-1.31378 2.27496,-2.52442 2.33446,-1.33326 2.23108,-1.25496 3.90446,-2.95756 l 1.39502,-1.41936 1.45936,-0.54626 c 0.90073,-0.33715 1.8034,-0.77847 2.3581,-1.15288 1.0363,-0.69947 2.30129,-1.26847 3.04314,-1.36881 0.47916,-0.0648 0.55634,-0.0334 1.11812,0.45551 0.33191,0.28883 0.68086,0.52352 0.77549,0.52155 0.2576,-0.005 0.91899,-0.52664 0.91899,-0.72432 0,-0.0949 -0.122,-0.3394 -0.27112,-0.54333 -1.0969,-1.50017 1.34119,-4.03878 7.03029,-7.32011 4.37031,-2.52067 7.32363,-3.85225 8.75668,-3.94816 1.0049,-0.0673 1.46263,0.0826 2.37385,0.77749 0.65471,0.49923 0.76179,0.51727 1.33633,0.22512 0.39337,-0.20001 0.41802,-0.25439 0.44183,-0.97493 0.0289,-0.87441 0.38018,-1.65227 0.86044,-1.90521 0.17504,-0.0922 1.16175,-0.33083 2.19269,-0.53027 1.03094,-0.19945 2.73281,-0.63226 3.78197,-0.9618 l 1.90752,-0.59917 2.84282,0.0609 c 2.24025,0.048 3.28272,0.0179 4.91823,-0.14237 1.23456,-0.12095 2.29207,-0.16959 2.61019,-0.12005 0.76418,0.11898 1.55202,0.84191 2.03409,1.86648 0.21034,0.44703 0.43415,0.83944 0.49738,0.87202 0.30816,0.1588 3.55994,0.37546 5.67647,0.37819 4.70568,0.006 7.37686,-0.69243 9.50658,-2.48602 0.83759,-0.7054 1.14749,-1.07576 1.74426,-2.0846 1.17095,-1.97946 2.3949,-5.40942 3.56021,-9.977 0.25188,-0.98725 0.57515,-1.9203 0.77191,-2.22793 0.40493,-0.6331 1.29204,-1.57324 3.33424,-3.53353 1.86955,-1.79458 2.12311,-2.12657 2.1296,-2.78832 0.006,-0.59113 0.23472,-1.3589 0.40518,-1.3589 0.33473,0 1.80127,0.45538 2.16825,0.67327 0.38856,0.23071 0.82525,0.76082 0.82525,1.00181 0,0.0555 -0.23849,0.16052 -0.52996,0.23334 -1.29157,0.32266 -3.21206,1.75897 -5.3219,3.98017 -2.42902,2.55722 -2.87791,3.33322 -3.3796,5.84235 -0.35136,1.75732 -0.54138,3.58242 -0.38773,3.72406 0.14904,0.13737 0.16433,0.12823 1.75972,-1.05325 3.77133,-2.79288 6.70559,-3.77509 11.79791,-3.9492 1.91867,-0.0656 1.98067,-0.0756 2.41532,-0.39053 0.24535,-0.17776 0.49965,-0.3232 0.56511,-0.3232 0.0655,0 0.27354,0.15312 0.46238,0.34026 0.71649,0.71002 0.56741,1.95235 -0.31929,2.66071 -0.39152,0.31277 -0.41022,0.31599 -0.67489,0.11628 -0.1497,-0.11298 -0.34542,-0.37427 -0.43492,-0.58065 -0.14094,-0.325 -0.25116,-0.39105 -0.82329,-0.49336 -2.99739,-0.53602 -8.39848,0.6908 -11.17233,2.53769 -1.39938,0.93176 -3.24679,2.48772 -4.14277,3.48922 -0.95098,1.06296 -1.70641,2.24325 -1.59321,2.48921 0.0745,0.16188 0.18142,0.15742 1.07594,-0.0449 0.59074,-0.13359 1.65429,-0.25027 2.6246,-0.2879 1.4087,-0.0546 1.7786,-0.0296 2.71004,0.18346 1.51472,0.34651 2.65261,0.88186 4.14659,1.95094 2.86915,2.05311 4.71693,3.11869 5.84605,3.3713 0.50585,0.11317 0.87393,0.10588 2.03712,-0.0404 1.40777,-0.17698 1.42169,-0.17647 1.65736,0.0609 0.31558,0.31786 0.29943,0.49525 -0.11221,1.23265 z M 98.342135,133.94606 c -0.0282,0 -0.13515,-0.0892 -0.23766,-0.19817 -0.16893,-0.17961 -0.16413,-0.18362 0.0513,-0.0428 0.22622,0.14793 0.29816,0.24093 0.18638,0.24093 z m -73.446438,5.62622 c -0.108338,-0.0362 -0.07616,-0.063 0.08205,-0.0684 0.143164,-0.005 0.223376,0.0218 0.178248,0.0594 -0.04513,0.0376 -0.162263,0.0416 -0.260298,0.009 z"
       id="path3728"
       inkscape:connector-curvature="0"
       inkscape:export-xdpi="96"
       inkscape:export-ydpi="96" />
    <ellipse
       id="path3730"
       cx="62.556255"
       cy="127.00243"
       rx="9.1023493"
       ry="9.5058002"
       style="fill-rule:nonzero;stroke-width:0.2947754"
       inkscape:export-xdpi="96"
       inkscape:export-ydpi="96" />
    <path
       inkscape:connector-curvature="0"
       style="fill:#000309;fill-opacity:1;fill-rule:nonzero;stroke:#000000;stroke-width:0.13186735;stroke-opacity:1"
       d="m 9.8574063,167.92576 c 0.07161,-0.27301 -0.0044,-0.39983 -0.4401577,-0.73451 -0.289641,-0.2225 -0.9414746,-0.60195 -1.4484784,-0.84321 -0.7931215,-0.37746 -0.9794065,-0.51397 -1.3347161,-0.97819 -0.5696616,-0.74467 -1.174028,-2.51307 -1.7541567,-5.1356 -0.5055594,-2.28555 -0.8065291,-3.01605 -1.7721046,-4.30126 -0.4955689,-0.66064 -0.7518623,-0.87349 -2.19440657,-1.82867 -1.12496586,-0.74522 -1.87015039,-1.1641 -2.39612503,-1.34784 -0.4198026,-0.14666 -0.7663435,-0.2938 -0.770074,-0.32697 -0.00924,-0.0815 1.79720056,-0.60993 2.97773113,-0.8709 2.24280987,-0.49581 6.64790187,-0.62082 8.71677427,-0.24736 2.8826304,0.52037 6.5680644,2.13345 8.0561944,3.52612 0.313949,0.29386 0.353876,0.45343 0.254314,1.02286 -0.177837,1.01874 0.29907,1.36679 1.535944,1.12102 0.888201,-0.17653 1.623674,-0.67417 2.110443,-1.428 0.422361,-0.65411 0.477292,-1.45195 0.116656,-1.69378 -0.23932,-0.16045 -0.994624,-0.28545 -1.362505,-0.22546 -0.201383,0.0328 -0.486606,-0.0832 -0.922159,-0.37518 -2.687505,-1.80151 -6.506797,-3.39707 -8.967003,-3.74603 -1.3469069,-0.19103 -3.5371727,-0.24985 -5.3722323,-0.14428 l -1.4720704,0.0847 0.944232,-0.78638 c 2.4321357,-2.02556 4.6492143,-3.33555 6.3544847,-3.75463 4.54668,-1.11732 9.428597,-1.53221 10.805767,-0.91831 0.520972,0.23222 0.72907,0.16437 1.077547,-0.35127 0.490894,-0.72644 0.03612,-1.98962 -1.09997,-3.05535 -0.35867,-0.33657 -0.448129,-0.36655 -0.80942,-0.27229 -0.223389,0.0583 -0.726688,0.37099 -1.118419,0.69485 -0.88504,0.73167 -1.378621,0.87961 -4.165203,1.24838 -4.998223,0.66145 -5.8481907,0.91037 -8.0331069,2.35249 -1.5565514,0.88684 -9.5071203,6.21515 -11.0660561,7.29748 -0.1272669,0.73372 0.032781,1.00178 0.054975,1.09838 1.6153786,0.63527 5.2907851,3.8504 5.4352245,4.13136 0.4779778,0.92975 1.0383186,3.19614 1.3767734,5.0714 0.2648234,1.46741 0.295482,1.53481 1.5765808,3.46764 0.9607913,1.44949 0.9679892,1.4687 0.9531159,2.51372 -0.019207,1.34518 0.1995407,1.57802 1.2442523,1.32447 1.7264532,-0.41899 2.7474154,-0.97714 2.9080684,-1.58981 z"
       id="path3765"
       clip-path="none"
       sodipodi:nodetypes="cccccccsccccccccccccccccccccccccccccccc"
       inkscape:export-xdpi="96"
       inkscape:export-ydpi="96" />
    <path
       style="fill:#fbffff;fill-opacity:1;fill-rule:nonzero;stroke:#000000;stroke-width:0.13186735;stroke-opacity:1"
       d="m -3.5079389,152.01427 c 0.2922117,-0.23375 2.4165332,-1.45322 5.0916397,-3.25368 3.2607858,-2.19464 6.5225253,-4.37049 8.2283225,-5.03666 0.8550847,-0.29433 2.3606567,-0.57325 5.6587077,-1.04837 3.01923,-0.43497 3.501634,-0.56648 4.051602,-1.10463 0.491423,-0.48063 1.311967,-0.98267 1.4526,-0.88837 0.2761,0.18519 1.110941,1.36946 1.234763,1.75066 0.130728,0.40381 0.05472,1.07941 -0.143602,1.27669 -0.04568,0.0455 -0.328849,-4.9e-4 -0.629248,-0.10214 -1.331098,-0.45033 -4.097503,-0.33687 -7.666101,0.31444 -4.1084257,0.74985 -5.1173649,1.13679 -7.5961816,2.91348 -1.7360702,1.24433 -3.3948144,2.63339 -3.3846201,2.83436 0.0099,0.19491 0.030083,0.19587 2.3185576,0.11119 5.4097591,-0.20019 8.6388271,0.61892 12.9833001,3.29345 1.636901,1.00768 1.69629,1.03379 2.314024,1.01644 0.348693,-0.01 0.678178,0.0118 0.732203,0.048 0.05402,0.0362 0.09976,0.27665 0.101402,0.53436 0.0068,0.97765 -1.138593,1.91227 -2.453057,2.00167 -0.580389,0.0395 -0.598481,0.0318 -0.652476,-0.27816 -0.03047,-0.17533 0.02304,-0.4975 0.119021,-0.71596 0.151216,-0.34406 0.114646,-0.45911 -0.273327,-0.85934 -2.031713,-2.09698 -7.497238,-4.08049 -11.3055964,-4.10296 -1.9212736,-0.0113 -4.7258689,0.24054 -6.28925884,0.5648 -1.40502606,0.50532 -4.84133076,0.83758 -2.43835106,1.71501 0.5973173,0.21743 1.57076049,0.71028 2.40224006,1.21623 1.20710614,0.73458 1.49169984,0.9597 2.08479124,1.6494 0.9645049,1.12163 1.462674,2.18941 1.8153869,3.89112 0.6774234,3.26809 1.3249366,5.16265 2.0485585,5.99409 0.3241402,0.37252 0.633844,0.57014 1.71382,1.0939 1.3070762,0.63389 1.3181492,0.642 1.3172372,0.96669 -0.0012,0.43481 -0.160537,0.5711 -1.1069844,0.94708 l 9.225e-4,-1.4e-4 c -1.0977526,0.4361 -1.9473106,0.5926 -2.0467173,0.37702 -0.044201,-0.0943 -0.049092,-0.58192 -0.012233,-1.08315 0.03682,-0.50122 -0.02002,-1.01937 -0.126355,-1.15142 -0.1069614,-0.13172 -0.6260456,-0.91151 -1.1550375,-1.7321 -0.9174365,-1.42328 -0.9807687,-1.58375 -1.3749381,-3.48352 -0.5012665,-2.41566 -0.9112151,-3.7239 -1.4811694,-4.72671 l -2.12076585,-1.91406 -1.63085365,-1.18548 -1.8142584,-1.00577"
       id="path3728-8-4"
       inkscape:connector-curvature="0"
       clip-path="none"
       sodipodi:nodetypes="csccccccccscccccccccccccccccccccccccccccc"
       inkscape:export-xdpi="96"
       inkscape:export-ydpi="96" />
    <g
       id="g4645"
       transform="matrix(0.89312541,0.01346676,-0.01615032,0.74472224,-0.56885983,33.249769)"
       inkscape:export-xdpi="96"
       inkscape:export-ydpi="96"
       style="fill-rule:nonzero;stroke:#000000;stroke-opacity:1">
      <path
         transform="rotate(10.955104,352.92991,172.34987)"
         sodipodi:nodetypes="ccccccccccccccccccccccccccscccccccccccccccccccccccsscc"
         clip-path="url(#clipPath4638)"
         id="path3765-5"
         d="m 1.5134239,181.44158 c 1.1451837,0.51943 2.1288139,0.94136 3.2620379,1.53085 l 1.927254,0.92786 0.822328,1.47815 0.82233,1.47815 0.498311,0.0458 c 0.723977,0.0667 1.3948382,-0.43218 1.9995702,-1.48552 0.602316,-1.04964 0.727866,-1.85506 0.375505,-2.40884 -0.224928,-0.35352 -0.308973,-0.38248 -0.676122,-0.23281 -0.9217582,0.37581 -4.0078532,-0.7297 -8.1927512,-2.93475 -2.63072103,-1.38616 -4.687618,-2.54352 -4.610974,-2.5945 0.03535,-0.0234 0.582901,-0.0448 1.216777,-0.0473 3.731408,-0.0146 7.744171,-1.07806 10.975366,-2.90879 1.3584772,-0.76968 1.5831002,-0.78347 2.2978402,-0.14117 0.594339,0.53411 0.772584,0.45606 1.214247,-0.53164 0.427075,-0.95505 0.325893,-1.71619 -0.375777,-2.82677 -0.433461,-0.68716 -0.68531,-0.94417 -1.237609,-1.26722 -0.845349,-0.49441 -1.198783,-0.38457 -1.243997,0.38658 -0.0177,0.30153 -0.144677,0.76085 -0.282231,1.02068 -0.7803072,1.47397 -6.9689962,4.16383 -10.07452423,4.37879 -2.41771197,0.16737 -6.76748497,-1.41639 -7.66143697,-2.78956 -0.157829,-0.24212 -0.936491,-1.86112 -1.730635,-3.59756 l -1.4439168,-3.15717 1.7966738,0.11816 c 2.481714,0.16325 2.96193,0.0754 4.213254,-0.76981 0.753712,-0.50905 1.404324,-1.11299 2.542469,-2.35977 1.75903697,-1.92689 2.17714797,-2.18772 3.361423,-2.09697 0.413678,0.0317 1.795766,0.3395 3.071301,0.684 2.518429,0.68015 3.055345,0.99095 3.838433,2.22168 0.835818,1.31362 1.740368,1.0195 2.4973282,-0.81204 0.267017,-0.64604 0.366445,-1.172 0.315682,-1.66975 -0.118399,-1.16088 -0.251124,-1.2197 -1.8786482,-0.83283 l -1.426316,0.33898 -1.633296,-0.51721 c -2.083083,-0.65964 -4.297537,-1.0435 -5.39898203,-0.93584 -0.473885,0.0463 -0.885304,0.0473 -0.914252,0.002 -0.133884,-0.20646 0.444884,-1.76181 0.985743,-2.65271 0.62601403,-1.03116 1.93483703,-2.35635 2.52637903,-2.55794 0.186557,-0.0641 0.586893,-0.002 0.88932,0.13764 0.659791,0.30398 1.501965,0.30353 1.961171,-0.001 0.28729,-0.19039 0.318418,-0.34162 0.218736,-1.05944 -0.194625,-1.40142 -1.32557,-2.88409 -2.265894,-2.97061 -0.74917,-0.0689 -1.206749,0.33882 -1.472565,1.31258 -0.207111,0.75855 -0.307454,0.90436 -1.008338,1.46539 -1.02451903,0.82005 -2.27180203,2.09136 -2.57291703,2.62248 -0.13247097,0.23366 -0.72429897,1.65321 -1.31517997,3.15458 -0.590896,1.50135 -1.238544,2.95368 -1.439204,3.2274 -0.523656,0.71431 -2.419896,1.95303 -3.475901,2.27073 -0.651946,0.19608 -1.07015,0.20225 -1.859699,0.0275 -0.9643428,-0.2134 -1.0970808,-0.29388 -2.4913368,-1.51046 0.191155,3.43801 0.42848,7.51387 0.07968,7.20196 -0.289319,-0.25871 -0.30014,0.71441 -0.162305,0.85945 0.71044,0.74759 5.8750334,6.92623 11.57652415,9.95177 z"
         style="fill:#000309;fill-opacity:1;fill-rule:nonzero;stroke:#000000;stroke-width:0.14440969;stroke-opacity:1"
         inkscape:connector-curvature="0" />
      <path
         sodipodi:nodetypes="cccccccccccccccccccccccccccccccccccccccccccccccccc"
         transform="rotate(10.955104,281.12617,345.21643)"
         clip-path="url(#clipPath4601)"
         inkscape:connector-curvature="0"
         id="path3728-8"
         d="m -45.869022,152.51061 c 2.019502,1.74232 2.951935,2.02202 4.7645,1.42922 0.996196,-0.32587 2.923289,-1.57456 3.53109,-2.28819 0.259894,-0.30514 0.868445,-1.62571 1.529452,-3.31903 0.603811,-1.54674 1.199299,-2.99484 1.323317,-3.218 0.330775,-0.59512 1.370041,-1.65215 2.492126,-2.53473 0.952819,-0.74939 0.99004,-0.8002 1.136025,-1.54913 0.215141,-1.1038 0.809303,-1.38183 1.635237,-0.76516 0.813706,0.60749 1.571943,2.6614 1.098659,2.97621 -0.211545,0.14067 -1.75881,-0.13932 -2.033358,-0.368 -0.247882,-0.20642 -1.323272,0.44719 -2.193894,1.33363 -0.974469,0.99207 -1.832122,2.46254 -2.17971,3.73718 -0.303139,1.11165 -0.183378,1.50354 0.38826,1.27055 0.68657,-0.28002 2.455756,-0.13419 4.599169,0.37881 1.164004,0.27861 2.401756,0.61999 2.750551,0.75863 0.551664,0.21928 0.800529,0.20547 1.912985,-0.10623 0.703331,-0.1971 1.330685,-0.33352 1.394185,-0.30268 0.377056,0.18171 0.131031,1.69262 -0.441112,2.70901 -0.60614,1.07674 -0.74017,1.05054 -1.831126,-0.35814 -0.318355,-0.41102 -0.800357,-0.8913 -1.071137,-1.06726 -0.6522,-0.4238 -4.965113,-1.57204 -5.935462,-1.58023 -1.21276,-0.0108 -1.679574,0.28514 -3.420674,2.16446 -2.842958,3.06853 -3.253795,3.26535 -6.411117,3.0713 -1.121491,-0.0689 -2.131858,-0.0658 -2.245279,0.008 -0.242759,0.15506 -0.317217,-0.0391 1.629803,4.24266 1.601571,3.52212 1.660946,3.60899 3.020698,4.41793 1.04675,0.62272 1.961287,0.97526 3.537247,1.36355 2.908119,0.71655 5.031764,0.34173 9.509804,-1.67811 2.67034,-1.20452 4.180255,-2.46798 4.278103,-3.57983 0.02206,-0.25114 0.11167,-0.45834 0.199055,-0.46039 0.250757,-0.006 1.240602,0.84288 1.550044,1.32921 0.387145,0.60846 0.483408,1.7786 0.201333,2.44698 l -0.234871,0.55648 -0.511537,-0.44985 c -0.290379,-0.25536 -0.673144,-0.4467 -0.885313,-0.44258 -0.206252,0.004 -0.894642,0.30598 -1.535978,0.67378 -3.365495,1.93003 -7.325071,2.92807 -11.408583,2.87561 -1.633399,-0.021 -2.09345,0.0542 -1.927435,0.31515 0.138454,0.21761 2.737098,1.71919 5.280067,3.05104 4.670781,2.44625 7.104138,3.37196 8.448296,3.21393 l 0.776298,-0.0913 -0.09686,0.68428 c -0.05329,0.37639 -0.336047,1.09547 -0.628356,1.59802 l -0.531499,0.91372 -0.58649,0.051 c -0.322606,0.0279 -0.637583,-0.0325 -0.700014,-0.13443 -0.06241,-0.10204 -0.439966,-0.79893 -0.839027,-1.54869 l -0.654661,-1.26869 c 0,0 -4.858504,-2.20036 -7.424148,-3.52966 -7.491796,-4.82321 -11.260168,-10.06558 -11.260168,-10.06558"
         style="fill:#fbffff;fill-opacity:1;fill-rule:nonzero;stroke:#000000;stroke-width:0.14440969;stroke-opacity:1" />
    </g>
  </g>
</svg>
